PathFileType	4	(X/Y/Z)	C:\Github\BTS_project\Data\sports2d_results\Single_Hop4 Exam_2026-03-06_123833_tvc2_Sports2D\Single_Hop4 Exam_2026-03-06_123833_tvc2_Sports2D_m_person00.trc
DataRate	CameraRate	NumFrames	NumMarkers	Units	OrigDataRate	OrigDataStartFrame	OrigNumFrames
30.0	30.0	8	22	m	30.0	0	278
Frame#	Time	Hip			RHip			RKnee			RAnkle			RBigToe			RSmallToe			RHeel			LHip			LKnee			LAnkle			LBigToe			LSmallToe			LHeel			Neck			Head			Nose			RShoulder			RElbow			RWrist			LShoulder			LElbow			LWrist			
		X1	Y1	Z1	X2	Y2	Z2	X3	Y3	Z3	X4	Y4	Z4	X5	Y5	Z5	X6	Y6	Z6	X7	Y7	Z7	X8	Y8	Z8	X9	Y9	Z9	X10	Y10	Z10	X11	Y11	Z11	X12	Y12	Z12	X13	Y13	Z13	X14	Y14	Z14	X15	Y15	Z15	X16	Y16	Z16	X17	Y17	Z17	X18	Y18	Z18	X19	Y19	Z19	X20	Y20	Z20	X21	Y21	Z21	X22	Y22	Z22
0	0.0	1.180044237892582	0.6516807513951195	0.0301	1.110517470424671	0.56961972540892	0.0301	1.3739883750952548	0.2847806754247991	0.129	1.6433918990329166	0.017391500657650223	0.023	1.6971257873283576	-0.08437420824074751	0.2179	1.6495393011831312	-0.11749596904988382	0.1804	1.7014100968597843	-0.00010240356335939528	-0.0119	1.2670843682336255	0.713734151772509	0.0301	1.5374217598953037	0.4418312865911591	0.129	1.8035762677199463	0.15760289624083929	0.023	1.9003188210997604	0.07961508164314968	0.2179	1.9328316003066417	0.12351293093116819	0.1804	1.8335234184886686	0.10844066573941037	-0.0119	0.7956419132344842	1.0588697500169277	0.0008	0.6693058293234546	1.2829344860359004	0.0655	0.7983163531035073	1.1187104155491456	0.1076	0.6602324183409385	0.9055654753082184	-0.01275	0.6586106140645029	0.6677780411120174	0.0702	0.8738697292025264	0.5677090511225412	0.1076	0.9616540453381607	1.1694051617233192	-0.01275	1.1862091881797088	1.1507114781962404	0.0702	1.2431301120943512	0.947033160215299	0.1076
1	0.033453670276774976	1.1799669062319607	0.6525805890607114	0.0301	1.1074590592745446	0.5718437577562261	0.0301	1.3740733636951377	0.2857700603613424	0.129	1.6442512263240758	0.017744656662247733	0.023	1.6979949364211524	-0.08409142724704657	0.2179	1.651760434317886	-0.11600741997771757	0.1804	1.702478818169111	0.00024945333363015075	-0.0119	1.266410764330776	0.7178782770802868	0.0301	1.5374238659086328	0.4429978535495789	0.129	1.8058096684610028	0.1591936361226657	0.023	1.900756210436788	0.08015775923548267	0.2179	1.9339282819474723	0.12406978230945016	0.1804	1.8343209749673373	0.11104065790768278	-0.0119	0.7970526130887454	1.0588694266282637	0.0008	0.6699192473910376	1.2850445451065557	0.0655	0.7997709622916658	1.1198324280753316	0.1076	0.6604420250638451	0.9061563561584083	-0.01275	0.660164665653684	0.6677823583309836	0.0702	0.8768602277511708	0.5687072566946781	0.1076	0.9604871836106702	1.1716267769539819	-0.01275	1.1874250509297324	1.1526859956137505	0.0702	1.2451817089620072	0.9480437869582508	0.1076
2	0.06690734055354995	1.1806301684148415	0.6535555859671868	0.0301	1.1049066377333203	0.574516661785168	0.0301	1.3744277177966053	0.28685294168087383	0.129	1.6449153982598557	0.01763278745678923	0.023	1.6975915214219957	-0.08490091171673114	0.2179	1.6530387280190124	-0.11552562846820522	0.1804	1.703453288746404	0.00045576727873085685	-0.0119	1.2662335492323091	0.723114781750299	0.0301	1.5389562905280811	0.4451127090255587	0.129	1.8094991557377902	0.15931734870993247	0.023	1.902258927372684	0.0797606543513355	0.2179	1.9357499696390075	0.125231797467783	0.1804	1.8354598885775548	0.11225671578508879	-0.0119	0.8000740299046392	1.0609406788993792	0.0008	0.6709928376916114	1.2892736960536524	0.0655	0.8020518601086765	1.1235961700721409	0.1076	0.6619792105697001	0.9084138490276304	-0.01275	0.6632884923535574	0.6698317272238804	0.0702	0.8832235093227863	0.5701156231685047	0.1076	0.9608076515440337	1.175190626316722	-0.01275	1.1890903186898998	1.154926671578361	0.0702	1.2489010792196986	0.9502227328598796	0.1076
3	0.10036101083032492	1.1824328848132053	0.6549761132761565	0.0301	1.1035843396358684	0.5780134390015889	0.0301	1.3749585389420507	0.2885433735953745	0.129	1.6452631652552436	0.016816569903281137	0.023	1.695907300579294	-0.08662396706960036	0.2179	1.652775522436086	-0.1163443731573364	0.1804	1.7036956788295348	0.0003800486065565973	-0.0119	1.2665911921762893	0.7293032897850519	0.0301	1.5419137737144233	0.44797794398986074	0.129	1.8137615589405947	0.15722502755370227	0.023	1.9050348888771858	0.07799496223032859	0.2179	1.9374153097090783	0.12617452025242198	0.1804	1.8371752829173695	0.11144107007450092	-0.0119	0.8046120903813319	1.0645973800261002	0.0008	0.67273397425937	1.2966345568080013	0.0655	0.804996383040167	1.1307990062878128	0.1076	0.6654072130258039	0.9130343603937139	-0.01275	0.6675698636322417	0.6739714279283949	0.0702	0.8917167746505051	0.5719155409513575	0.1076	0.9636159770086709	1.1793555289776634	-0.01275	1.1916379713441818	1.1570058387669417	0.0702	1.2546932629358947	0.9533893834550494	0.1076
4	0.1338146811070999	1.18522880686209	0.6575007781032157	0.0301	1.1042970482762056	0.5827613172849901	0.0301	1.3756756657112144	0.2910242533926424	0.129	1.6454944307666184	0.015737282380452015	0.023	1.6946281554805884	-0.08816266769032192	0.2179	1.6519150594247858	-0.11710535611813001	0.1804	1.7030905145011648	-2.510726925089096e-05	-0.0119	1.2678891392649114	0.7353018205229678	0.0301	1.5451040977342672	0.4503551705111957	0.129	1.8170104020533189	0.15426420140198338	0.023	1.9077110411504488	0.07589993549727148	0.2179	1.9381091334203702	0.12548927563189477	0.1804	1.839507247807178	0.10971421897899304	-0.0119	0.8095188998495861	1.0682162948156382	0.0008	0.6759370293812348	1.3053582876285843	0.0655	0.8081826798022977	1.1386765764230207	0.1076	0.670278289469413	0.9192941666741787	-0.01275	0.6715906202194382	0.679018761722898	0.0702	0.8986007535725665	0.5743742335307627	0.1076	0.9684565894892593	1.1828591447558168	-0.01275	1.19624927469735	1.1591053550747092	0.0702	1.2620929281818696	0.9573231748510098	0.1076
5	0.16726835138387489	1.1889761948600557	0.6609415085137478	0.0301	1.1079713324833498	0.5878215918216585	0.0301	1.3769954226812262	0.2928485347965978	0.129	1.645635310229849	0.01524006501048373	0.023	1.6942186225179954	-0.08966091545408	0.2179	1.6510297627641592	-0.11637814952189042	0.1804	1.7024011901652931	-0.0013470090941663797	-0.0119	1.271420362309342	0.7391614671295017	0.0301	1.5480822841166435	0.45116430220293324	0.129	1.8191416427347393	0.15199801958450923	0.023	1.9083459287003142	0.07435661529648194	0.2179	1.9383175520986269	0.123245232939511	0.1804	1.841408832934994	0.10785027653044701	-0.0119	0.8142414164671988	1.0721521016866022	0.0008	0.6812230974688445	1.3122830405265842	0.0655	0.8120901428663847	1.144013816030662	0.1076	0.6756636959073078	0.9260535616610102	-0.01275	0.6752083255616724	0.6848315166337957	0.0702	0.9020215201807302	0.5781478297903634	0.1076	0.9744793956868573	1.186024262589488	-0.01275	1.2035970599783152	1.1621067180609022	0.0702	1.270213627745674	0.9617908814910587	0.1076
6	0.20072202166064984	1.1941759349227319	0.6641447119070701	0.0301	1.1139911974276686	0.591313448490563	0.0301	1.3793907106584409	0.2929228742742479	0.129	1.6456911702384753	0.015237020707931205	0.023	1.6930626710454788	-0.09160690795383056	0.2179	1.649326825533241	-0.11452545548310125	0.1804	1.702121746841448	-0.004479913910268398	-0.0119	1.2774507330188205	0.7403626868382859	0.0301	1.551087709782338	0.4507910537771019	0.129	1.8207875313916524	0.15052688088541366	0.023	1.9065309337106542	0.07244706175159821	0.2179	1.9381773543055758	0.12121895012884827	0.1804	1.8415848173849712	0.10503398569145651	-0.0119	0.819915881387588	1.0776541815623184	0.0008	0.6876303344431213	1.317600528780705	0.0655	0.8175710033676488	1.1485599652390022	0.1076	0.6809535064460456	0.9331816624865803	-0.01275	0.6796955877686619	0.6919171852401996	0.0702	0.9035080348276582	0.5832531730990893	0.1076	0.9817526440109785	1.190426094065526	-0.01275	1.212489387263575	1.1666408442161371	0.0702	1.2783836659193872	0.9652050828644493	0.1076
7	0.23417569193742482	1.2005352870909198	0.6667112601349243	0.0301	1.120057383044581	0.5931414382612228	0.0301	1.382903239031478	0.2928962395622667	0.129	1.6461917134267396	0.014520542058874134	0.023	1.6907247854336964	-0.0926347310396098	0.2179	1.6471901135586082	-0.11290161167973159	0.1804	1.7020782515443533	-0.00867258197429453	-0.0119	1.2843184581601599	0.7409605315817979	0.0301	1.5540929972286197	0.4505655743684681	0.129	1.8219709469377663	0.1499252217990351	0.023	1.9036013355629344	0.07010378402203611	0.2179	1.9371459432318763	0.12055891150006193	0.1804	1.8408145365273783	0.10129099792236533	-0.0119	0.8278853946982118	1.0848265510064594	0.0008	0.6941784672998067	1.323907949171294	0.0655	0.824445478988044	1.156437770603531	0.1076	0.6862877575594736	0.9409645497709964	-0.01275	0.6855112798536299	0.6999387503904139	0.0702	0.9063125184398397	0.5891094116939722	0.1076	0.9901908044687286	1.1970789423891548	-0.01275	1.2213920403872547	1.1725145098587093	0.0702	1.286613986939436	0.9663222996448322	0.1076
